/* XPM */
static char * solidar32_xpm[] = {
"32 32 535 2",
"  	c None",
". 	c #907B70",
"+ 	c #7B8491",
"@ 	c #7F8894",
"# 	c #757F8B",
"$ 	c #6C7683",
"% 	c #508799",
"& 	c #AC8E82",
"* 	c #CCD1D8",
"= 	c #DCE0E4",
"- 	c #B1B5BB",
"; 	c #A1958E",
"> 	c #808B96",
", 	c #78838F",
"' 	c #7B8794",
") 	c #8995A2",
"! 	c #9CA8B4",
"~ 	c #8593A1",
"{ 	c #6C8788",
"] 	c #9B9FB0",
"^ 	c #E8EBED",
"/ 	c #A4ADB5",
"( 	c #48525C",
"_ 	c #03080E",
": 	c #0D1015",
"< 	c #332117",
"[ 	c #070E17",
"} 	c #0C0F15",
"| 	c #070A0E",
"1 	c #2F3B48",
"2 	c #527E90",
"3 	c #6F8395",
"4 	c #565C71",
"5 	c #687E8A",
"6 	c #DDE5E9",
"7 	c #ABB3BC",
"8 	c #111920",
"9 	c #040A10",
"0 	c #0E1827",
"a 	c #0D1623",
"b 	c #060E18",
"c 	c #0E4252",
"d 	c #475A6E",
"e 	c #4C6177",
"f 	c #60AAC6",
"g 	c #BFE0E7",
"h 	c #4F7C8B",
"i 	c #093E4A",
"j 	c #295A68",
"k 	c #15455A",
"l 	c #07121E",
"m 	c #1E2F42",
"n 	c #46505F",
"o 	c #263142",
"p 	c #848DAC",
"q 	c #D0D6DB",
"r 	c #202831",
"s 	c #050C15",
"t 	c #D3D7DD",
"u 	c #D1D7DC",
"v 	c #CDD3D9",
"w 	c #C5CBD3",
"x 	c #B7BFC8",
"y 	c #ADB7C1",
"z 	c #A9B3BD",
"A 	c #9BA7B3",
"B 	c #8594A2",
"C 	c #777C88",
"D 	c #B54941",
"E 	c #0B1828",
"F 	c #101F2F",
"G 	c #4B4547",
"H 	c #36304C",
"I 	c #589EC0",
"J 	c #CED3D9",
"K 	c #1F262E",
"L 	c #181519",
"M 	c #EB683A",
"N 	c #DD3A26",
"O 	c #D2D7DD",
"P 	c #DADEE2",
"Q 	c #C8CFD6",
"R 	c #8693A2",
"S 	c #2C4359",
"T 	c #031D39",
"U 	c #041E38",
"V 	c #041F3A",
"W 	c #082441",
"X 	c #2C455E",
"Y 	c #5C7083",
"Z 	c #576C80",
"` 	c #30637C",
" .	c #C85543",
"..	c #101E30",
"+.	c #4B372A",
"@.	c #0F2A46",
"#.	c #D7B69E",
"$.	c #866752",
"%.	c #3E2517",
"&.	c #E56547",
"*.	c #FAEAB0",
"=.	c #EA8561",
"-.	c #DE3D28",
";.	c #CACBD1",
">.	c #D4D9DF",
",.	c #7D8C9C",
"'.	c #051A31",
").	c #03070D",
"!.	c #03070C",
"~.	c #03080D",
"{.	c #040910",
"].	c #0A1D2F",
"^.	c #0F2B48",
"/.	c #0E2A47",
"(.	c #102B46",
"_.	c #0D233C",
":.	c #A9887C",
"<.	c #50372B",
"[.	c #0C2239",
"}.	c #0F2640",
"|.	c #948B8E",
"1.	c #919DA8",
"2.	c #DE3F2A",
"3.	c #FAE5AC",
"4.	c #F9E2AA",
"5.	c #F9E3AB",
"6.	c #CC7871",
"7.	c #C3CAD2",
"8.	c #465C72",
"9.	c #06121F",
"0.	c #252724",
"a.	c #B19774",
"b.	c #F3BC8B",
"c.	c #ED956D",
"d.	c #BF3A29",
"e.	c #501E1D",
"f.	c #081726",
"g.	c #0C2136",
"h.	c #0E2945",
"i.	c #0A192B",
"j.	c #EBD8A4",
"k.	c #D57448",
"l.	c #0C2137",
"m.	c #0D253D",
"n.	c #1D2D45",
"o.	c #B9C1CA",
"p.	c #0E161E",
"q.	c #23182A",
"r.	c #EDAB81",
"s.	c #A7B2BD",
"t.	c #8E9BA9",
"u.	c #0E2843",
"v.	c #918164",
"w.	c #DE3E29",
"x.	c #DE3D29",
"y.	c #A7372F",
"z.	c #132D49",
"A.	c #102B47",
"B.	c #0E2944",
"C.	c #07121C",
"D.	c #E8D4A0",
"E.	c #F9DBA0",
"F.	c #6C5250",
"G.	c #0D253E",
"H.	c #0C2036",
"I.	c #68737F",
"J.	c #7C8995",
"K.	c #040A11",
"L.	c #E14F36",
"M.	c #FAEBB1",
"N.	c #F8DCA6",
"O.	c #CE493C",
"P.	c #8D9AA8",
"Q.	c #102C49",
"R.	c #081827",
"S.	c #040B12",
"T.	c #D83B27",
"U.	c #D04332",
"V.	c #3E4F60",
"W.	c #040B13",
"X.	c #EBD6A1",
"Y.	c #F1BE7E",
"Z.	c #0E2842",
"`.	c #0B2036",
" +	c #132134",
".+	c #929DAA",
"++	c #333F4B",
"@+	c #182B3A",
"#+	c #F1AF82",
"$+	c #F9E4AB",
"%+	c #EC936C",
"&+	c #AF7C73",
"*+	c #718293",
"=+	c #091A2B",
"-+	c #081422",
";+	c #DD3E29",
">+	c #DE3F29",
",+	c #E46145",
"'+	c #EB8D67",
")+	c #EA8762",
"!+	c #DD3B26",
"~+	c #D73C28",
"{+	c #D83C29",
"]+	c #DF452F",
"^+	c #F9E5AC",
"/+	c #F9D79C",
"(+	c #4A3441",
"_+	c #152E48",
":+	c #0A1E31",
"<+	c #919EAB",
"[+	c #83514C",
"}+	c #FAE9AF",
"|+	c #F7D39E",
"1+	c #DE402B",
"2+	c #A0A393",
"3+	c #455B71",
"4+	c #0E2844",
"5+	c #0F2740",
"6+	c #989487",
"7+	c #F2B687",
"8+	c #F9DFA8",
"9+	c #F3BE8D",
"0+	c #DD3724",
"a+	c #DF412C",
"b+	c #E36044",
"c+	c #CB5327",
"d+	c #1F3953",
"e+	c #0D5166",
"f+	c #7E6764",
"g+	c #6C7C8C",
"h+	c #DABC95",
"i+	c #FAE6AD",
"j+	c #E87655",
"k+	c #ED9970",
"l+	c #C7BB96",
"m+	c #112C47",
"n+	c #27405A",
"o+	c #6A7C8E",
"p+	c #8694A2",
"q+	c #94A0AB",
"r+	c #BBBAAE",
"s+	c #E2D4AC",
"t+	c #F6D09C",
"u+	c #DD3824",
"v+	c #2F4D66",
"w+	c #545C73",
"x+	c #556576",
"y+	c #09121D",
"z+	c #C95343",
"A+	c #EFA379",
"B+	c #F5CC99",
"C+	c #E04C34",
"D+	c #FAE8AE",
"E+	c #F5DFA8",
"F+	c #0B1E33",
"G+	c #081624",
"H+	c #0B1F34",
"I+	c #0F2C49",
"J+	c #132E4B",
"K+	c #435970",
"L+	c #8895A4",
"M+	c #9DA8B4",
"N+	c #9AA6B2",
"O+	c #98A4B0",
"P+	c #9BA4AF",
"Q+	c #949EA5",
"R+	c #D3C8A5",
"S+	c #F8DCA5",
"T+	c #DF432D",
"U+	c #357E98",
"V+	c #10202E",
"W+	c #192132",
"X+	c #4E596D",
"Y+	c #465769",
"Z+	c #091321",
"`+	c #DE3B27",
" @	c #DF442E",
".@	c #E77252",
"+@	c #F1DBA5",
"@@	c #373C3A",
"#@	c #050D15",
"$@	c #050F1B",
"%@	c #091C2F",
"&@	c #122C48",
"*@	c #183451",
"=@	c #27415B",
"-@	c #596C80",
";@	c #8291A0",
">@	c #66788B",
",@	c #526372",
"'@	c #F9E0A9",
")@	c #E35B40",
"!@	c #56697D",
"~@	c #1D2C3D",
"{@	c #1A2332",
"]@	c #485668",
"^@	c #384B5F",
"/@	c #0A1523",
"(@	c #F2B989",
"_@	c #FAE6AE",
":@	c #E6D29F",
"<@	c #AA9D79",
"[@	c #46453B",
"}@	c #03090F",
"|@	c #06111B",
"1@	c #0C2640",
"2@	c #1B3651",
"3@	c #16314C",
"4@	c #253948",
"5@	c #E87857",
"6@	c #637487",
"7@	c #1E2C3B",
"8@	c #2E2425",
"9@	c #364358",
"0@	c #31465B",
"a@	c #121A25",
"b@	c #E87755",
"c@	c #E9D4A0",
"d@	c #D7C495",
"e@	c #8C8367",
"f@	c #071018",
"g@	c #071521",
"h@	c #0D233B",
"i@	c #0D2742",
"j@	c #0A1A2B",
"k@	c #F6DFA8",
"l@	c #F9E4AC",
"m@	c #EC916B",
"n@	c #758596",
"o@	c #121F2A",
"p@	c #53331E",
"q@	c #424D64",
"r@	c #2D445C",
"s@	c #081626",
"t@	c #F2B486",
"u@	c #E77655",
"v@	c #F8DEA7",
"w@	c #6D6F65",
"x@	c #102A44",
"y@	c #05101B",
"z@	c #F7E7AE",
"A@	c #DE3C27",
"B@	c #808F9E",
"C@	c #263F5A",
"D@	c #0A2B3D",
"E@	c #D26155",
"F@	c #CF7269",
"G@	c #DAAE98",
"H@	c #CF6D64",
"I@	c #C25A4F",
"J@	c #E66D4E",
"K@	c #DAD1A6",
"L@	c #506479",
"M@	c #17324F",
"N@	c #060D15",
"O@	c #E2684B",
"P@	c #F9E1A9",
"Q@	c #E87A58",
"R@	c #030A11",
"S@	c #1A334E",
"T@	c #0F3B52",
"U@	c #101F33",
"V@	c #7D7784",
"W@	c #B4BDC6",
"X@	c #BFC7CF",
"Y@	c #919BA6",
"Z@	c #321A20",
"`@	c #F3BB8B",
" #	c #E9825E",
".#	c #F3BE8E",
"+#	c #C8574C",
"@#	c #102C4A",
"##	c #06101B",
"$#	c #030A10",
"%#	c #E9825F",
"&#	c #DC3421",
"*#	c #777E8D",
"=#	c #7C8997",
"-#	c #213047",
";#	c #104A65",
">#	c #0B1F33",
",#	c #475268",
"'#	c #314962",
")#	c #1A3551",
"!#	c #081E33",
"~#	c #0C2138",
"{#	c #DD3421",
"]#	c #F7E1AC",
"^#	c #C6CACE",
"/#	c #A2ADB9",
"(#	c #0A2540",
"_#	c #79725A",
":#	c #F3BA8B",
"<#	c #AEB7C1",
"[#	c #18212A",
"}#	c #492F1E",
"|#	c #10506B",
"1#	c #65412B",
"2#	c #4B3443",
"3#	c #102943",
"4#	c #0F2B49",
"5#	c #586173",
"6#	c #B7605B",
"7#	c #E4A885",
"8#	c #E0533C",
"9#	c #ECA47D",
"0#	c #EBCFA8",
"a#	c #E2D7C2",
"b#	c #D7DBDF",
"c#	c #D2D7DC",
"d#	c #05090E",
"e#	c #F7D7A2",
"f#	c #957C6E",
"g#	c #B4A298",
"h#	c #342112",
"i#	c #165C76",
"j#	c #0D243B",
"k#	c #4C3C34",
"l#	c #0C2035",
"m#	c #0F2C4A",
"n#	c #16314D",
"o#	c #576A7F",
"p#	c #A8B2BD",
"q#	c #B7C0C9",
"r#	c #BFC7CE",
"s#	c #CFD5DA",
"t#	c #D9DEE2",
"u#	c #94A2B0",
"v#	c #1D354D",
"w#	c #050D17",
"x#	c #C05F45",
"y#	c #DD3622",
"z#	c #C5CCD3",
"A#	c #212A34",
"B#	c #07141F",
"C#	c #463935",
"D#	c #132A45",
"E#	c #081725",
"F#	c #07121D",
"G#	c #0A1D30",
"H#	c #0A223C",
"I#	c #19344F",
"J#	c #3A526C",
"K#	c #496077",
"L#	c #495F75",
"M#	c #374B61",
"N#	c #091D32",
"O#	c #020E1B",
"P#	c #02060B",
"Q#	c #080D11",
"R#	c #C2B287",
"S#	c #BBC2C9",
"T#	c #848E99",
"U#	c #030910",
"V#	c #22697C",
"W#	c #352D2C",
"X#	c #122C46",
"Y#	c #1D334C",
"Z#	c #3B1A1C",
"`#	c #02080D",
" $	c #02060A",
".$	c #1E201F",
"+$	c #712F25",
"@$	c #F7D6A1",
"#$	c #E3573C",
"$$	c #83C4D4",
"%$	c #84BCCB",
"&$	c #083E4A",
"*$	c #1F8299",
"=$	c #5C655A",
"-$	c #09192A",
";$	c #223A53",
">$	c #344A62",
",$	c #9C2E21",
"'$	c #79251D",
")$	c #4C1A17",
"!$	c #2A1113",
"~$	c #701F19",
"{$	c #A28465",
"]$	c #E8D3A0",
"^$	c #E56649",
"/$	c #CAC5C2",
"($	c #ADB5BE",
"_$	c #141C29",
":$	c #111E2E",
"<$	c #2F4359",
"[$	c #50657A",
"}$	c #495565",
"|$	c #E9815E",
"1$	c #F9E3AA",
"2$	c #F6CF9B",
"3$	c #7198A7",
"4$	c #E2E6E9",
"5$	c #919AA4",
"6$	c #0C1622",
"7$	c #0C1620",
"8$	c #12202D",
"9$	c #5E6F82",
"0$	c #768696",
"a$	c #5D6A78",
"b$	c #D14230",
"c$	c #C0483A",
"d$	c #9A9FAA",
"e$	c #E1E4E8",
"f$	c #C7CDD3",
"g$	c #283039",
"h$	c #0D1523",
"i$	c #0E1928",
"j$	c #050E18",
"k$	c #141F2B",
"l$	c #6F7E8D",
"m$	c #8B98A6",
"n$	c #9EA9B5",
"o$	c #7FC2D2",
"p$	c #B2BEC7",
"q$	c #BDC5CD",
"r$	c #D8B7A1",
"s$	c #CED0D3",
"t$	c #C9CFD5",
"u$	c #ACB4BD",
"v$	c #212932",
"w$	c #101720",
"x$	c #0B1523",
"y$	c #19222B",
"z$	c #2F5461",
"A$	c #314F5C",
"B$	c #1B242D",
"C$	c #15100E",
"D$	c #361F10",
"E$	c #131C29",
"F$	c #111927",
"G$	c #0D1522",
"H$	c #0B1421",
"I$	c #12596C",
"J$	c #1A91AA",
"                          . + @ # $ %                           ",
"                    & * = - ; > , ' ) ! ~ {                     ",
"                ] ^ / ( _ _ : < [ } | _ 1 2 3 4                 ",
"            5 6 7 8 9 0                 a b c d e               ",
"          f g h i j                         k l m n o           ",
"        p q r s           t u v w x y z A B C D E F G H         ",
"      I J K L M N     O P Q R S T U V W X Y Z `  ...+.@.        ",
"      #.$.%.&.*.=.-.;.>.,.'.).!.~.~.~.{.].^./.(._.:.<.[.}.      ",
"    |.1._ 2.3.4.5.6.7.8.9._ 0.a.b.c.d.e.f.g.^.h.i.j.k.l.m.n.    ",
"    o.p.q.c.4.5.r.s.t.u._ v.w.x.w.w.w.w.y.z.A.B.C.D.E.F.G.H.    ",
"  I.J.K.L.M.4.N.O.P.Q.R.S.T.w.w.w.w.w.w.U.V.)._ W.X.4.Y.Z.`. +  ",
"  .+++@+#+4.$+%+&+*+^.=+-+;+w.>+2.,+'+)+!+~+{+{+{+]+^+/+(+_+:+  ",
"  <+_ [+}+4.|+1+2+3+^.4+5+6+7+8+4.4.4.4.9+0+w.w.w.w.a+b+c+d+e+  ",
"f+g+S.h+4.i+j+k+l+m+^.^.n+o+p+q+r+s+4.4.4.t+u+w.w.w.w.w.  v+R.  ",
"w+x+y+z+A+B+C+D+E+F+G+H+I+J+K+L+M+N+O+P+Q+R+S+T+w.w.w.w.  U+V+W+",
"X+Y+Z+  `+ @.@4.4.+@@@#@S.W.$@%@&@*@=@-@;@>@,@'@)@w.w.    !@~@{@",
"]@^@/@      )@(@.@_@4.:@<@[@}@}@_ W.|@1@^.2@3@4@5.5@w.    6@7@8@",
"9@0@a@      2.N -.b@5.4.4.4.4.c@d@e@f@g@h@^.i@j@k@l@m@w.  n@o@p@",
"q@r@s@      w.w.w.t@u@v@4.4.4.4.4.4.4.w@x@^.B.y@z@4.'@A@  B@W.  ",
"  C@D@    w.E@F@G@H@I@J@l@4.4.4.4.4.4.K@L@M@h@N@O@P@Q@w.  L+R@  ",
"  S@T@U@  w.V@W@X@Y@Z@`@ #.#4.4.4.4.4.+#L+@###$#%#&#-.  *#=#R@  ",
"  -#;#>#    ,#'#)#!#~#u+w.{#*.$+4.4.]#^#/#(#)._#:#-.    <#[#}#  ",
"    |#[.1#  2#3#4#^.2@5#6#7#8#9#0#a#b#c#C@W.d#e# @    f#g#h#    ",
"    i#j#k#    l.l#m#n#o#<+p#q#r#s#t#u#v#w#_ x#y#      z#A#B#    ",
"      l.C#D#    E#F#G#H#I#J#K#L#M#N#O#P#Q#R#7+`+    S#T#U#      ",
"      V#W#X#Y#    Z#S.`# $!.). $P#)..$+$j+@$#$    $$%$&$*$      ",
"        =$-$;$>$      ,$'$)$!$~${$]$4.*.^$-.    /$($_ _$        ",
"          :$G+<$[$}$            -.|$1$2$N   3$4$5$_ 6$          ",
"              7$8$9$0$a$          >+b$c$d$e$f$g$U#h$            ",
"                i$j$k$l$m$n$o$p$q$r$s$t$u$v$_ w$                ",
"                    x$S.}@_ y$z$A$B$C$D$S.E$                    ",
"                            F$G$H$I$J$                          "};
