/* XPM */
static char * solidar16_xpm[] = {
"16 16 188 2",
"  	c None",
". 	c #938585",
"+ 	c #9C9494",
"@ 	c #80868F",
"# 	c #707B89",
"$ 	c #6B8697",
"% 	c #567787",
"& 	c #758391",
"* 	c #A2AAB4",
"= 	c #39434D",
"- 	c #0E2432",
"; 	c #2B2123",
"> 	c #281F24",
", 	c #111522",
"' 	c #25313E",
") 	c #4B5C6F",
"! 	c #7C5655",
"~ 	c #7D99B7",
"{ 	c #5D727D",
"] 	c #293B47",
"^ 	c #BCC4CC",
"/ 	c #ABB5BF",
"( 	c #B76561",
"_ 	c #434D59",
": 	c #1D2F43",
"< 	c #323146",
"[ 	c #818296",
"} 	c #656669",
"| 	c #B7966E",
"1 	c #DF402A",
"2 	c #DAA9A1",
"3 	c #AAB4BD",
"4 	c #203246",
"5 	c #031427",
"6 	c #0A223A",
"7 	c #3C526A",
"8 	c #485A68",
"9 	c #AF8471",
"0 	c #0F2439",
"a 	c #858F9A",
"b 	c #464444",
"c 	c #F1AC80",
"d 	c #E0CAAC",
"e 	c #6D7E8F",
"f 	c #09090D",
"g 	c #AD3122",
"h 	c #DB3B26",
"i 	c #802A22",
"j 	c #0D243B",
"k 	c #0D243C",
"l 	c #C2B990",
"m 	c #815849",
"n 	c #0C233A",
"o 	c #756C6C",
"p 	c #2B3844",
"q 	c #FAE6AD",
"r 	c #E87D5A",
"s 	c #A2A8A8",
"t 	c #061B31",
"u 	c #9E4C39",
"v 	c #EFA67B",
"w 	c #F5C795",
"x 	c #EFA278",
"y 	c #282F3A",
"z 	c #030910",
"A 	c #B5513C",
"B 	c #EB7F54",
"C 	c #112840",
"D 	c #175B70",
"E 	c #78717B",
"F 	c #1E2E39",
"G 	c #EC956D",
"H 	c #F8DBA4",
"I 	c #546675",
"J 	c #0B2642",
"K 	c #6A7476",
"L 	c #F7E2AB",
"M 	c #F9E2AA",
"N 	c #F9E5AC",
"O 	c #F3BA8A",
"P 	c #DC3522",
"Q 	c #DE3E29",
"R 	c #3B414F",
"S 	c #17263A",
"T 	c #4A576B",
"U 	c #1D2E3F",
"V 	c #DD3825",
"W 	c #F3BC8C",
"X 	c #7D7C6B",
"Y 	c #091A2C",
"Z 	c #233B54",
"` 	c #617589",
" .	c #98A2AA",
"..	c #B3B7B4",
"+.	c #C5C1A6",
"@.	c #F5CA98",
"#.	c #DE3C27",
"$.	c #3A7288",
"%.	c #13202F",
"&.	c #38485B",
"*.	c #1A303D",
"=.	c #DC3320",
"-.	c #F0AD80",
";.	c #B4A57F",
">.	c #635C49",
",.	c #212525",
"'.	c #010D1A",
").	c #142A40",
"!.	c #2D465F",
"~.	c #7C786B",
"{.	c #F6D29D",
"].	c #4D6A7D",
"^.	c #2A2829",
"/.	c #2F3D56",
"(.	c #1E3642",
"_.	c #DD3F28",
":.	c #E35C41",
"<.	c #F0AA7E",
"[.	c #F8DBA5",
"}.	c #F6E0A9",
"|.	c #514948",
"1.	c #12304D",
"2.	c #322829",
"3.	c #E87A58",
"4.	c #6F8797",
"5.	c #2D2626",
"6.	c #232F46",
"7.	c #0E354C",
"8.	c #9E979F",
"9.	c #9A9CA5",
"0.	c #B93324",
"a.	c #EC926B",
"b.	c #F6CF9B",
"c.	c #F9E3AB",
"d.	c #CBA48D",
"e.	c #2D445B",
"f.	c #493A30",
"g.	c #818D9A",
"h.	c #543322",
"i.	c #0E3A53",
"j.	c #403536",
"k.	c #23344C",
"l.	c #092440",
"m.	c #604650",
"n.	c #D94938",
"o.	c #ECB68E",
"p.	c #E48A71",
"q.	c #C1C9D1",
"r.	c #021021",
"s.	c #851A12",
"t.	c #957968",
"u.	c #1F242A",
"v.	c #19445A",
"w.	c #222C39",
"x.	c #0B1D2F",
"y.	c #1C3650",
"z.	c #768595",
"A.	c #95A1AD",
"B.	c #6A7A8A",
"C.	c #000C1A",
"D.	c #5D2F27",
"E.	c #6A92A0",
"F.	c #155F72",
"G.	c #362D2E",
"H.	c #23384D",
"I.	c #36687C",
"J.	c #07313C",
"K.	c #18110F",
"L.	c #06080E",
"M.	c #56332B",
"N.	c #D55B41",
"O.	c #6895A4",
"P.	c #818A95",
"Q.	c #101824",
"R.	c #4E3629",
"S.	c #141F2C",
"T.	c #667280",
"U.	c #7B8D9B",
"V.	c #6C808C",
"W.	c #9E887D",
"X.	c #A2AAB3",
"Y.	c #ABB2BB",
"Z.	c #21282F",
"`.	c #151D2B",
" +	c #182531",
".+	c #1B404E",
"++	c #223F4A",
"@+	c #4E4539",
"          . + @ # $ %           ",
"      & * = - ; > , ' ) !       ",
"    ~ { ]       ^ / ( _ : <     ",
"  [ } | 1 2 3 4 5 6 7 8 9 0     ",
"  a b c d e f g h i j k l m n   ",
"o p q r s t u v w x y z A B C D ",
"E F G H I J K L M N O P Q   R S ",
"T U V W X Y Z `  ...+.@.#.  $.%.",
"&.*.Q =.-.;.>.,.'.).!.~.{.  ].^.",
"/.(._.:.P <.[.M }.|.1.2.3.  4.5.",
"6.7.  8.9.0.a.b.c.d.e.f.    g.h.",
"  i.j.k.l.m.n.o.p.q.r.s.  t.u.  ",
"  v.w.  x.y.z.A.B.C.D.    E.F.  ",
"    G.H.I.J.K.L.M.N.  O.P.Q.    ",
"      R.S.T.U.V.W.X.Y.Z.        ",
"            `. +.+++@+          "};
