/* XPM */
static char * solidar32_xpm[] = {
"32 32 422 2",
"  	c None",
". 	c #4F2700",
"+ 	c #4D2600",
"@ 	c #4C2500",
"# 	c #4E2600",
"$ 	c #4C2600",
"% 	c #5A2D00",
"& 	c #7D3F00",
"* 	c #954A00",
"= 	c #A65400",
"- 	c #AD5700",
"; 	c #AD5600",
"> 	c #A34E00",
", 	c #AC770C",
"' 	c #905E08",
") 	c #5E3202",
"! 	c #4A2200",
"~ 	c #733A00",
"{ 	c #A95500",
"] 	c #C16100",
"^ 	c #BC5E00",
"/ 	c #BB5E00",
"( 	c #C27708",
"_ 	c #DE9910",
": 	c #EBAC14",
"< 	c #F2B215",
"[ 	c #CF9311",
"} 	c #825207",
"| 	c #492100",
"1 	c #502700",
"2 	c #5F2F00",
"3 	c #AC5700",
"4 	c #BD5F00",
"5 	c #BC5D00",
"6 	c #BB6804",
"7 	c #B56102",
"8 	c #EEB015",
"9 	c #EAAB14",
"0 	c #EEAE14",
"a 	c #D49811",
"b 	c #613603",
"c 	c #512800",
"d 	c #793D00",
"e 	c #BE5E00",
"f 	c #B95A00",
"g 	c #B96303",
"h 	c #C67908",
"i 	c #D18D0D",
"j 	c #F0B215",
"k 	c #CA860D",
"l 	c #ECAE14",
"m 	c #784704",
"n 	c #4E2700",
"o 	c #4D2500",
"p 	c #844200",
"q 	c #BD6402",
"r 	c #E19A10",
"s 	c #C47A09",
"t 	c #B65B00",
"u 	c #CD830A",
"v 	c #DE9F12",
"w 	c #D8950F",
"x 	c #BD5E00",
"y 	c #814000",
"z 	c #895908",
"A 	c #B36504",
"B 	c #A95400",
"C 	c #C99010",
"D 	c #D79E13",
"E 	c #DDA313",
"F 	c #E1A513",
"G 	c #E1A413",
"H 	c #DCA112",
"I 	c #D89E12",
"J 	c #D69C12",
"K 	c #DAA013",
"L 	c #DFA312",
"M 	c #E4A713",
"N 	c #E9AA13",
"O 	c #E7A813",
"P 	c #E0A513",
"Q 	c #B36906",
"R 	c #AB5600",
"S 	c #B25A00",
"T 	c #733900",
"U 	c #502800",
"V 	c #633803",
"W 	c #E1A614",
"X 	c #B8790B",
"Y 	c #9F5301",
"Z 	c #BF8910",
"` 	c #CD9712",
" .	c #D99F13",
"..	c #DEA212",
"+.	c #DDA112",
"@.	c #D69D12",
"#.	c #CA9511",
"$.	c #C69211",
"%.	c #C89411",
"&.	c #D39B12",
"*.	c #DDA213",
"=.	c #E8A913",
"-.	c #E5A813",
";.	c #DFA313",
">.	c #C5880E",
",.	c #A05201",
"'.	c #A05000",
").	c #A25200",
"!.	c #B25900",
"~.	c #5B2E00",
"{.	c #4B2200",
"].	c #D49A12",
"^.	c #461F00",
"/.	c #4C2400",
"(.	c #401900",
"_.	c #A9750C",
":.	c #A4700B",
"<.	c #421B00",
"[.	c #4B2300",
"}.	c #451D00",
"|.	c #603502",
"1.	c #E6A914",
"2.	c #AE790D",
"3.	c #411B00",
"4.	c #3E1C00",
"5.	c #A55100",
"6.	c #E2A613",
"7.	c #D19912",
"8.	c #835608",
"9.	c #724806",
"0.	c #C59212",
"a.	c #DAA012",
"b.	c #BA8710",
"c.	c #592F01",
"d.	c #4E2500",
"e.	c #B2820F",
"f.	c #D09912",
"g.	c #E0A413",
"h.	c #DBA113",
"i.	c #AD700A",
"j.	c #693400",
"k.	c #673200",
"l.	c #C18B10",
"m.	c #D4910F",
"n.	c #7B4C06",
"o.	c #CF9410",
"p.	c #E3A613",
"q.	c #D39A12",
"r.	c #BD8B10",
"s.	c #532A01",
"t.	c #934900",
"u.	c #C07F0B",
"v.	c #C79211",
"w.	c #8C5E09",
"x.	c #4C2300",
"y.	c #AB7C0E",
"z.	c #CB9412",
"A.	c #E2A513",
"B.	c #C0810C",
"C.	c #994B00",
"D.	c #924900",
"E.	c #AD6706",
"F.	c #DC9F12",
"G.	c #BC800D",
"H.	c #5E3402",
"I.	c #CB9512",
"J.	c #704404",
"K.	c #542A00",
"L.	c #9C4F00",
"M.	c #AB5300",
"N.	c #E6AA14",
"O.	c #E8AA13",
"P.	c #D59B12",
"Q.	c #B6850F",
"R.	c #8F6009",
"S.	c #CD9612",
"T.	c #E5A713",
"U.	c #EAAD14",
"V.	c #AA5701",
"W.	c #A15100",
"X.	c #522900",
"Y.	c #603000",
"Z.	c #A35200",
"`.	c #B35A00",
" +	c #C15F00",
".+	c #592C00",
"++	c #905E09",
"@+	c #C3870E",
"#+	c #823F00",
"$+	c #894500",
"%+	c #C37809",
"&+	c #ECAD14",
"*+	c #D89D12",
"=+	c #C08D10",
"-+	c #633903",
";+	c #693F04",
">+	c #C89311",
",+	c #D18F0E",
"'+	c #8D4700",
")+	c #7B3E00",
"!+	c #B85C00",
"~+	c #BC5F00",
"{+	c #7A3D00",
"]+	c #BB830E",
"^+	c #F4B315",
"/+	c #F4B415",
"(+	c #F6B615",
"_+	c #B26404",
":+	c #703800",
"<+	c #A35100",
"[+	c #B15600",
"}+	c #E3A413",
"|+	c #C18F11",
"1+	c #4D2400",
"2+	c #BF8C10",
"3+	c #D79D13",
"4+	c #C07809",
"5+	c #A45300",
"6+	c #9F4F00",
"7+	c #C26100",
"8+	c #994D00",
"9+	c #4A2100",
"0+	c #471F00",
"a+	c #4A2400",
"b+	c #9E4F00",
"c+	c #B15900",
"d+	c #B86102",
"e+	c #C68B0F",
"f+	c #A7750D",
"g+	c #4F2600",
"h+	c #996A0B",
"i+	c #D09811",
"j+	c #E6A813",
"k+	c #C07508",
"l+	c #582C00",
"m+	c #4B2500",
"n+	c #4A2500",
"o+	c #AE780C",
"p+	c #BA820E",
"q+	c #AC750B",
"r+	c #8C4500",
"s+	c #904800",
"t+	c #B1750B",
"u+	c #815407",
"v+	c #593002",
"w+	c #5E3603",
"x+	c #744805",
"y+	c #C99411",
"z+	c #CD9411",
"A+	c #904700",
"B+	c #8B4600",
"C+	c #974C00",
"D+	c #9A4D00",
"E+	c #8E4700",
"F+	c #DB9E12",
"G+	c #F0B015",
"H+	c #F1B315",
"I+	c #A65100",
"J+	c #763B00",
"K+	c #522800",
"L+	c #744A06",
"M+	c #764D07",
"N+	c #522901",
"O+	c #C59111",
"P+	c #D29911",
"Q+	c #CF9812",
"R+	c #774102",
"S+	c #9B4E00",
"T+	c #B05800",
"U+	c #BE6000",
"V+	c #BF6000",
"W+	c #663B03",
"X+	c #6A3E04",
"Y+	c #6B3F04",
"Z+	c #5E2F00",
"`+	c #532900",
" @	c #5E2E00",
".@	c #914800",
"+@	c #4B2400",
"@@	c #94680A",
"#@	c #9A6E0C",
"$@	c #A4730C",
"%@	c #C49011",
"&@	c #C99311",
"*@	c #673C03",
"=@	c #613000",
"-@	c #633100",
";@	c #774805",
">@	c #8F5E08",
",@	c #885507",
"'@	c #7B3D00",
")@	c #743A00",
"!@	c #663300",
"~@	c #934A00",
"{@	c #552B01",
"]@	c #C08D11",
"^@	c #B88810",
"/@	c #5A3102",
"(@	c #7C5107",
"_@	c #B5850F",
":@	c #B98610",
"<@	c #6D4204",
"[@	c #855607",
"}@	c #8F5E09",
"|@	c #773B00",
"1@	c #7C3E00",
"2@	c #6A3500",
"3@	c #EDAE14",
"4@	c #ECAC14",
"5@	c #D0880C",
"6@	c #AE5700",
"7@	c #723900",
"8@	c #572C00",
"9@	c #805307",
"0@	c #C79011",
"a@	c #C38F10",
"b@	c #825407",
"c@	c #593001",
"d@	c #AA7D0E",
"e@	c #8D6009",
"f@	c #BC880F",
"g@	c #AD5500",
"h@	c #5C3102",
"i@	c #F3B215",
"j@	c #C77A08",
"k@	c #623000",
"l@	c #5F3502",
"m@	c #8B5F0A",
"n@	c #AA780D",
"o@	c #A9790D",
"p@	c #956B0C",
"q@	c #683E04",
"r@	c #5F3402",
"s@	c #D09812",
"t@	c #DFA212",
"u@	c #EDAF15",
"v@	c #BA6302",
"w@	c #582B00",
"x@	c #CE9310",
"y@	c #C87C09",
"z@	c #B75D00",
"A@	c #A25000",
"B@	c #895807",
"C@	c #CE9712",
"D@	c #DA9F12",
"E@	c #DBA012",
"F@	c #C89211",
"G@	c #562D01",
"H@	c #795007",
"I@	c #8B5C08",
"J@	c #B76102",
"K@	c #A65300",
"L@	c #7E4F06",
"M@	c #EEAF14",
"N@	c #D5930F",
"O@	c #BB5C00",
"P@	c #BC6503",
"Q@	c #D19812",
"R@	c #BD8910",
"S@	c #784B06",
"T@	c #CE9711",
"U@	c #E3A513",
"V@	c #CB9511",
"W@	c #7D5007",
"X@	c #532A00",
"Y@	c #B6840E",
"Z@	c #D79D12",
"`@	c #D3900F",
" #	c #BB5D00",
".#	c #BE5F00",
"+#	c #D29711",
"@#	c #D9940F",
"##	c #CA9411",
"$#	c #6A3F04",
"%#	c #A2710C",
"&#	c #E7A913",
"*#	c #A6760D",
"=#	c #5B3102",
"-#	c #B96403",
";#	c #623703",
">#	c #EFAF15",
",#	c #E4A413",
"'#	c #E0A112",
")#	c #95650A",
"!#	c #885908",
"~#	c #D49B12",
"{#	c #D79610",
"]#	c #5C2D00",
"^#	c #855507",
"/#	c #F0B115",
"(#	c #E9AA14",
"_#	c #DDA113",
":#	c #CC9411",
"<#	c #A06D0B",
"[#	c #AD790D",
"}#	c #D99E12",
"|#	c #E4A613",
"1#	c #AF7B0D",
"2#	c #C78F10",
"3#	c #EBAD14",
"4#	c #C06E05",
"5#	c #966409",
"6#	c #F1B115",
"7#	c #DEA012",
"8#	c #B85A00",
"9#	c #804000",
"0#	c #D5940F",
"a#	c #613502",
"b#	c #D09511",
"c#	c #5A2F01",
"d#	c #7D4D06",
"e#	c #CA9010",
"f#	c #F3B315",
"g#	c #C98F10",
"h#	c #794A05",
"i#	c #582F01",
"j#	c #8B5907",
"k#	c #C48A0F",
"l#	c #D19611",
"m#	c #AD770C",
"n#	c #8A5907",
"o#	c #582E01",
"                          . + @ @ + #                           ",
"                    $ % & * = - ; > , ' ) !                     ",
"                $ ~ { ] ^ / / / ( _ : : < [ } |                 ",
"            1 2 3 4 / / / / 5 6 7 8 9 9 9 9 0 a b c             ",
"          # d e / / / f g h i j k l 9 9 9 9 9 9 0 m n           ",
"        o p q r s t u v 8 : 9 9 : 9 9 9 9 9 9 9 w x y n         ",
"      1 z A B C D E F F G H I J J K L M N O F P Q R S T U       ",
"      V W X Y Z `  ...+.H @.#.$.%.&.*.G =.-.;.>.,.'.).!.~.      ",
"    {.].^.! + /.| (._.+.:.<.{.[.[.}.|.1.=.-.2.3.$ + $ 4.5.@     ",
"    } 6.7.8.1 c 9.0. .+.a.b.c.c d.e.f.g.=.-.h.i.j.c k.l.m.n.    ",
"  ! o.p.q.r.s.c k.t.u.p.+.v.w.1 x.y.z.A.N =.B.C.j.+ D.E.F.G./.  ",
"  H.< 9 G I.J.c K.L.M.N.O.P.Q.x.1 R.S.T.9 U.V.W.X.Y.Z.`.f  +.+  ",
"  ++: 9 O @+#+. . $+B %+&+*+=+-+c ;+>+;.9 ,+B '+# )+= !+/ ~+{+  ",
"o ]+^+/+(+_+W.c c :+<+[+}+J |+s.c 1+2+3+9 4+5+T + 6+!.] 7+7+8+. ",
"c 9+0+0+0+a+$ U c .+b+c+d+e+f+o 1 g+h+i+j+k+Z.l+U m+m+n+n+n+$ c ",
"x.o+p+p+p+q+r+T 1 # s+R !.t+u+v+w+c x+y++.z+A++ :+B+C+D+D+D+E+# ",
"! F+G+G+G+H+I+b+U c J+Z.B <+K+L+M+c N+O+P+Q+R++ S+T+U+V+V+V+- $ ",
"1 W+X+X+X+Y+2 Z+`+c  @L.b+.@+@@@#@1+d.$@%@&@*@K+2 =@-@-@-@-@2 U ",
"1 ;@>@>@>@,@'@)@!@U # E+~@T {@]@^@/@c (@_@:@! <@[@}@|@1@1@1@2@U ",
"  ' 3@4@: 5@^ 6@8+. U 7@r+8@9@0@a@b@c c@d@e@9+f@I j g@^ ^ 4 )+  ",
"  h@i@9 : j@/ S '.k@c l@m@{.n@i+i+o@1+1+p@q@r@s@t@u@v@/ / ] w@  ",
"  {.x@9 : y@/ z@A@B@1 g+M+X.C@D@E@F@G@c H@d.I@s@T.8 J@/ / K@+   ",
"    L@M@9 N@O@P@Q@R@x.c X.S@T@A.U@V@W@c X@[.Y@Z@N `@ #/ .#:+    ",
"    ! +#9 u@6 @#t@##$#c # %#].&#&#].*#d.c =#` ..8 -#/ / { $     ",
"      ;#>#9 ,#'#T.q.)#d.d.Q+H 9 9 H 7.X.g+!#~#T.{#O@/ U+]#      ",
"      1 ^#/#9 9 (#_#:#<#[#}#|#9 9 |#I 1#<#2#_#3#4#/ V+)@U       ",
"        o 5#6#9 9 T.;.L ..A.(#9 9 (#A...L ;.T.7#8#V+9#n         ",
"          o ^#>#9 9 9 9 9 9 9 9 9 9 9 9 9 9 9 0#e )@n           ",
"            1 a#b#>#9 9 9 9 9 9 9 9 9 9 9 9 >#b#c#U             ",
"                ! d#e#f#&+9 9 9 9 9 9 &+f#g#h#!                 ",
"                    [.i#j#o+k#l#l#k#m#n#o#x.                    ",
"                          # /.! ! /.g+                          "};
