/* XPM */
static char * worldleadcurrency32_xpm[] = {
"32 32 518 2",
"  	c None",
". 	c #FFFFFF",
"+ 	c #FCFCFC",
"@ 	c #E5E0D9",
"# 	c #BCAD9E",
"$ 	c #957E68",
"% 	c #7E6144",
"& 	c #6A4624",
"* 	c #694520",
"= 	c #694622",
"- 	c #7E6041",
"; 	c #947D64",
"> 	c #BCAC9C",
", 	c #E1DBD6",
"' 	c #FCFBFB",
") 	c #D2C8BF",
"! 	c #9E8772",
"~ 	c #714D2A",
"{ 	c #6A3704",
"] 	c #7A3D00",
"^ 	c #8B4500",
"/ 	c #984C00",
"( 	c #9E4F00",
"_ 	c #9D4F00",
": 	c #995001",
"< 	c #9D6508",
"[ 	c #8E5C08",
"} 	c #764909",
"| 	c #6F4B25",
"1 	c #99826C",
"2 	c #D2C7BE",
"3 	c #FDFDFD",
"4 	c #EBE7E3",
"5 	c #A7937F",
"6 	c #68411B",
"7 	c #763A00",
"8 	c #974B00",
"9 	c #B25900",
"0 	c #B95D00",
"a 	c #BB5E00",
"b 	c #BA5E00",
"c 	c #C27005",
"d 	c #D9930E",
"e 	c #E8A913",
"f 	c #DEA012",
"g 	c #B9810D",
"h 	c #895807",
"i 	c #6B451B",
"j 	c #A38E79",
"k 	c #E7E2DD",
"l 	c #D2C8BE",
"m 	c #876C51",
"n 	c #6D3600",
"o 	c #B75B00",
"p 	c #BA5D00",
"q 	c #C16D04",
"r 	c #BF7006",
"s 	c #E2A211",
"t 	c #EAAB14",
"u 	c #E5A713",
"v 	c #B8800D",
"w 	c #7B4C05",
"x 	c #82664A",
"y 	c #CEC3B8",
"z 	c #C7BBAF",
"A 	c #725131",
"B 	c #7C3D00",
"C 	c #AC5700",
"D 	c #BA6101",
"E 	c #C06C04",
"F 	c #C67707",
"G 	c #D1880B",
"H 	c #E0A011",
"I 	c #D38E0D",
"J 	c #E4A512",
"K 	c #D29610",
"L 	c #844E04",
"M 	c #72502F",
"N 	c #C8BBAF",
"O 	c #804000",
"P 	c #B76302",
"Q 	c #D0870B",
"R 	c #C87B08",
"S 	c #BC6703",
"T 	c #CB7E09",
"U 	c #D8940E",
"V 	c #E3A312",
"W 	c #E7A813",
"X 	c #E9AA13",
"Y 	c #E8AA13",
"Z 	c #D48E0D",
"` 	c #B66102",
" .	c #824100",
"..	c #CCC1B6",
"+.	c #E9E5E0",
"@.	c #866B50",
"#.	c #855506",
"$.	c #AF6504",
"%.	c #AA5901",
"&.	c #C98C0E",
"*.	c #D49A11",
"=.	c #D3950F",
"-.	c #E0A312",
";.	c #E1A412",
">.	c #DCA012",
",.	c #D89D11",
"'.	c #D69C11",
").	c #DA9F12",
"!.	c #DFA212",
"~.	c #E3A612",
"{.	c #E6A713",
"].	c #DA9E11",
"^.	c #B77007",
"/.	c #AB5500",
"(.	c #A95400",
"_.	c #793C00",
":.	c #806347",
"<.	c #E6E0DB",
"[.	c #A6927E",
"}.	c #774904",
"|.	c #B17C0C",
"1.	c #A56707",
"2.	c #955202",
"3.	c #AC750B",
"4.	c #B9840E",
"5.	c #C18A0F",
"6.	c #D59A11",
"7.	c #D59B11",
"8.	c #C0890E",
"9.	c #B7830E",
"0.	c #B4810D",
"a.	c #B6820E",
"b.	c #BD870E",
"c.	c #C78E0F",
"d.	c #E4A613",
"e.	c #B4790B",
"f.	c #965002",
"g.	c #944A00",
"h.	c #964B00",
"i.	c #934900",
"j.	c #6C3500",
"k.	c #A08A75",
"l.	c #FCFCFB",
"m.	c #D3C8BF",
"n.	c #6B451C",
"o.	c #A46F0A",
"p.	c #865607",
"q.	c #5E3301",
"r.	c #592C00",
"s.	c #5C3101",
"t.	c #5F3502",
"u.	c #6C4003",
"v.	c #AE780C",
"w.	c #DDA112",
"x.	c #B27C0C",
"y.	c #693E03",
"z.	c #5E3401",
"A.	c #663B02",
"B.	c #8B5B07",
"C.	c #B47E0D",
"D.	c #6D4003",
"E.	c #5A2C00",
"F.	c #6E3A01",
"G.	c #844200",
"H.	c #663D16",
"I.	c #D0C6BB",
"J.	c #D99D11",
"K.	c #B7820E",
"L.	c #845607",
"M.	c #512800",
"N.	c #502700",
"O.	c #6D4103",
"P.	c #A3700A",
"Q.	c #CE9510",
"R.	c #D19810",
"S.	c #A1700B",
"T.	c #683D03",
"U.	c #582F01",
"V.	c #926309",
"W.	c #DEA212",
"X.	c #E4A612",
"Y.	c #D09710",
"Z.	c #9A5F06",
"`.	c #683500",
" +	c #6C3801",
".+	c #A36C09",
"++	c #C7850C",
"@+	c #855406",
"#+	c #98816A",
"$+	c #E5DFD9",
"%+	c #73502B",
"&+	c #B67E0C",
"*+	c #E2A412",
"=+	c #D29911",
"-+	c #B17F0D",
";+	c #643A03",
">+	c #673400",
",+	c #985302",
"'+	c #BE7B0A",
")+	c #DFA312",
"!+	c #DBA012",
"~+	c #C79110",
"{+	c #895C08",
"]+	c #562D00",
"^+	c #9C6D0B",
"/+	c #C99210",
"(+	c #C27F0B",
"_+	c #984E00",
":+	c #6A3400",
"<+	c #552A00",
"[+	c #864300",
"}+	c #B26C06",
"|+	c #D2900D",
"1+	c #AE7109",
"2+	c #6D4821",
"3+	c #E0D9D2",
"4+	c #754809",
"5+	c #DDA012",
"6+	c #C69010",
"7+	c #5C2D00",
"8+	c #914800",
"9+	c #AD5C02",
"0+	c #D9970F",
"a+	c #A8760C",
"b+	c #5A3101",
"c+	c #895B08",
"d+	c #CA9310",
"e+	c #E1A111",
"f+	c #B46704",
"g+	c #5E2F00",
"h+	c #653200",
"i+	c #9B4D00",
"j+	c #AF5700",
"k+	c #BB6201",
"l+	c #B45D01",
"m+	c #6C3702",
"n+	c #B6A797",
"o+	c #977E68",
"p+	c #8D5B07",
"q+	c #BF800B",
"r+	c #804401",
"s+	c #522800",
"t+	c #532900",
"u+	c #814000",
"v+	c #A65300",
"w+	c #C77C09",
"x+	c #B9860E",
"y+	c #724604",
"z+	c #C28D0F",
"A+	c #DCA112",
"B+	c #D28D0D",
"C+	c #A75500",
"D+	c #894400",
"E+	c #773B00",
"F+	c #A55200",
"G+	c #B55A00",
"H+	c #7E3E00",
"I+	c #91775F",
"J+	c #7E6143",
"K+	c #996609",
"L+	c #DB9E12",
"M+	c #D59910",
"N+	c #AC6706",
"O+	c #5B2D00",
"P+	c #703700",
"Q+	c #A05000",
"R+	c #B35E01",
"S+	c #D5900D",
"T+	c #B5820E",
"U+	c #5D3301",
"V+	c #AE7B0D",
"W+	c #D59C11",
"X+	c #C57D09",
"Y+	c #A35100",
"Z+	c #763B00",
"`+	c #834100",
" @	c #A15000",
".@	c #AE5700",
"+@	c #B05800",
"@@	c #775638",
"#@	c #684422",
"$@	c #623702",
"%@	c #6A3E03",
"&@	c #603100",
"*@	c #5D2E00",
"=@	c #613000",
"-@	c #BC6A04",
";@	c #C4870D",
">@	c #A06F0B",
",@	c #552B00",
"'@	c #522900",
")@	c #936309",
"!@	c #CE9611",
"~@	c #C17A09",
"{@	c #643100",
"]@	c #602F00",
"^@	c #623000",
"/@	c #5E2E00",
"(@	c #664120",
"_@	c #6A4620",
":@	c #966309",
"<@	c #A36A09",
"[@	c #864400",
"}@	c #874300",
"|@	c #A85400",
"1@	c #B16F08",
"2@	c #593001",
"3@	c #5C3301",
"4@	c #774B05",
"5@	c #C48F10",
"6@	c #D99E12",
"7@	c #C5870D",
"8@	c #8E4C01",
"9@	c #562A00",
"0@	c #854200",
"a@	c #8E4700",
"b@	c #694420",
"c@	c #6B4720",
"d@	c #BD840D",
"e@	c #E5A613",
"f@	c #D99B10",
"g@	c #AB5D03",
"h@	c #743900",
"i@	c #9A4F00",
"j@	c #633300",
"k@	c #704605",
"l@	c #754C06",
"m@	c #603502",
"n@	c #B27F0D",
"o@	c #CF9711",
"p@	c #C89110",
"q@	c #814C04",
"r@	c #A75300",
"s@	c #B45A00",
"t@	c #B75C00",
"u@	c #6A4520",
"v@	c #684522",
"w@	c #714404",
"x@	c #7A4B05",
"y@	c #6A3600",
"z@	c #623100",
"A@	c #9D4E00",
"B@	c #572B00",
"C@	c #8A5E08",
"D@	c #90650A",
"E@	c #542A00",
"F@	c #996A0A",
"G@	c #C28D10",
"H@	c #C18C0F",
"I@	c #734504",
"J@	c #6E3600",
"K@	c #693400",
"L@	c #7D5F41",
"M@	c #6C3F03",
"N@	c #8C5A07",
"O@	c #835005",
"P@	c #783C00",
"Q@	c #723800",
"R@	c #924900",
"S@	c #643902",
"T@	c #AC7B0D",
"U@	c #AC7C0D",
"V@	c #6A3F03",
"W@	c #7E5106",
"X@	c #B3830E",
"Y@	c #A9780C",
"Z@	c #6D4104",
"`@	c #825306",
" #	c #865506",
".#	c #793E00",
"+#	c #663200",
"@#	c #765537",
"##	c #CE870B",
"$#	c #6F3700",
"%#	c #834200",
"&#	c #805206",
"*#	c #C28E10",
"=#	c #C08C0F",
"-#	c #855707",
";#	c #643A02",
">#	c #A0730C",
",#	c #8A5D08",
"'#	c #A7750C",
")#	c #DB9C11",
"!#	c #BA6603",
"~#	c #CB7F09",
"{#	c #B15800",
"]#	c #9C4E00",
"^#	c #623601",
"/#	c #7D4E05",
"(#	c #572D01",
"_#	c #9C6B0A",
":#	c #CD9611",
"<#	c #CD9510",
"[#	c #A0700B",
"}#	c #552C00",
"|#	c #542C00",
"1#	c #875D09",
"2#	c #6F4404",
"3#	c #C18B0F",
"4#	c #6C3601",
"5#	c #B5A593",
"6#	c #E2DDD7",
"7#	c #714D27",
"8#	c #CD8109",
"9#	c #A65A02",
"0#	c #844F04",
"a#	c #6C4304",
"b#	c #613602",
"c#	c #B8830E",
"d#	c #D79C11",
"e#	c #BA860E",
"f#	c #673C03",
"g#	c #694004",
"h#	c #5B3101",
"i#	c #885907",
"j#	c #E2A512",
"k#	c #E3A412",
"l#	c #6B441E",
"m#	c #DED7CF",
"n#	c #9B846E",
"o#	c #875607",
"p#	c #B95F00",
"q#	c #BE6C04",
"r#	c #C6860C",
"s#	c #AD7B0C",
"t#	c #5C3201",
"u#	c #7A4D05",
"v#	c #825407",
"w#	c #542B00",
"x#	c #A3720B",
"y#	c #E6A813",
"z#	c #D38C0C",
"A#	c #BA5F00",
"B#	c #B85C00",
"C#	c #967E67",
"D#	c #E6A613",
"E#	c #C77807",
"F#	c #CF860B",
"G#	c #C48E0F",
"H#	c #744805",
"I#	c #986809",
"J#	c #D39A11",
"K#	c #BD880E",
"L#	c #C47406",
"M#	c #BB5D00",
"N#	c #643B12",
"O#	c #CCC0B5",
"P#	c #FEFEFD",
"Q#	c #A48F7B",
"R#	c #7C4D05",
"S#	c #D59911",
"T#	c #DD9C10",
"U#	c #E3A512",
"V#	c #966509",
"W#	c #B9850E",
"X#	c #E7A913",
"Y#	c #693D03",
"Z#	c #875807",
"`#	c #D09811",
" $	c #D6900D",
".$	c #BA6001",
"+$	c #AF5800",
"@$	c #713800",
"#$	c #9F8973",
"$$	c #E8E3DE",
"%$	c #83674C",
"&$	c #915F08",
"*$	c #E3A513",
"=$	c #C48D0F",
"-$	c #9C690A",
";$	c #A6720B",
">$	c #A8750B",
",$	c #99670A",
"'$	c #BC850E",
")$	c #803F00",
"!$	c #7D6043",
"~$	c #CFC4B9",
"{$	c #725130",
"]$	c #9A6709",
"^$	c #DC990F",
"/$	c #BB6301",
"($	c #73502F",
"_$	c #CABEB2",
":$	c #926008",
"<$	c #D69A11",
"[$	c #DA950E",
"}$	c #AE5900",
"|$	c #83674B",
"1$	c #754102",
"2$	c #BA820D",
"3$	c #DEA112",
"4$	c #E0A212",
"5$	c #BC840E",
"6$	c #8B5907",
"7$	c #694217",
"8$	c #9F8873",
"9$	c #99816B",
"0$	c #6E4922",
"a$	c #764908",
"b$	c #905E08",
"c$	c #A8730B",
"d$	c #BB820D",
"e$	c #C48A0F",
"f$	c #C48B0F",
"g$	c #BB830D",
"h$	c #A9730B",
"i$	c #784B08",
"j$	c #6E4921",
"k$	c #BAA99A",
"l$	c #937962",
"m$	c #785A3A",
"n$	c #694621",
"o$	c #6E4821",
"p$	c #694620",
"q$	c #775938",
"r$	c #927861",
"s$	c #B8A89A",
". . . . . . . . . + @ # $ % & * * = - ; > , ' . . . . . . . . . ",
". . . . . . . . ) ! ~ { ] ^ / ( _ : < [ } | 1 2 3 . . . . . . . ",
". . . . . . 4 5 6 7 8 9 0 a a b c d e e f g h i j k . . . . . . ",
". . . . . l m n 8 o a a a p 0 q r s t t t t u v w x y . . . . . ",
". . . . z A B C p a p D E F G H I J t t t t t t K L M N . . . . ",
". . . l A O P Q R S T U V W e e u e X X X X X Y Z `  .M ... . . ",
". . +.@.#.$.%.&.*.=.-.;.-.>.,.'.'.).!.~.W {.;.].^./.(._.:.<.. . ",
". . [.}.|.1.2.3.4.5.6.>.7.8.9.0.a.b.c.-.{.d.,.e.f.g.h.i.j.k.l.. ",
". m.n.o.p.q.r.s.t.u.v.w.x.y.z.z.z.A.B.,.{.d.C.D.E.r.r.F.G.H.I.. ",
"+ ! #.J.K.L.M.N.O.P.Q.>.R.S.T.N.U.V.4.W.{.X.Y.Z.`.N. +.+++@+#+' ",
"$+%+&+*+=+-+;+N.>+,+'+)+!+~+{+M.]+^+/+!.W u (+_+:+<+[+}+|+1+2+3+",
"# 4+5+e W.6+}.N.7+8+9+0+u =+a+b+M.c+d+;.X e+f+h.g+h+i+j+k+l+m+n+",
"o+p+e X X.q+r+s+t+u+v+w+{.'.x+y.N.y+z+A+X B+C+D+<+E+F+G+p p H+I+",
"J+K+L+L+M+N+^ O+N.P+Q+R+S+'.T+;+M.U+V+W+{.X+Y+Z+<+`+ @.@+@+@[+@@",
"#@$@%@%@%@&@*@s+M.=@8 .@-@;@>@,@N.'@)@!@;.~@i+{@M.*@]@^@^@^@/@(@",
"_@:@v.v.v.<@[@P+s+<+}@|@.@1@L.2@3@N.4@5@6@7@8@9@n 0@a@8+8+8+u+b@",
"c@d@e@e@e@f@g@a@E.N.h@Q+v+i@j@k@l@M.m@n@o@p@q@9@D+r@s@t@t@t@( u@",
"v@w@w w w x@y@h+t+N.z@g.A@D+B@C@D@]+E@F@G@H@I@s+h+:+J@J@J@J@K@(@",
"L@M@N@N@N@O@P@Q@h+M.<+ .R@h@S@T@U@V@N.W@X@Y@q.Z@`@ #.#_._._.+#@#",
"; p+W e e ##t@/.a@E.M.$#%#]@&#*#=#-#M.;#>#,#U.'#*.)#!#0 0 0 H+I+",
"> 4+5+t X ~#0 {#]#K@N.^#/#(#_#:#<#[#}#|#1#2#u.3#>.V E a a s@4#5#",
"6#7#g t X 8#p G+9#0#s+2@a#b#c#d#,.e#f#M.g#h#i#o@j#k#E a a ]#l#m#",
"' n#o#d.t S+p#q#r#s#t#M.|#u#/+!.-.d+v#N.w#}#x#7.y#z#A#a B#] C#' ",
". m.i v t D#E#F#w.G#H#N.'@I#=+X.u J#S.}#M.f#K#>.J L#M#a i+N#O#. ",
". P#Q#R#S#t T#H U#=+V#'@$@W#).X#e !+3#Y#M.Z#`#*+ $.$a +$@$#$' . ",
". . $$%$&$*$t t W >.=$-$;$*.;.X X j#W+>$,$'$!+U#E#p t@)$!$<.. . ",
". . . ~${$]$*$t X X.W.w.w.;.W X X W ;.w.w.W.~.^$/$t@[+($_$. . . ",
". . . . N {$:$<$t X e e e e X t t X Y e e e X [$}$)$($N . . . . ",
". . . . . ~$|$/#g u t t t t t t t t t t t t {.g 1$!$_$. . . . . ",
". . . . . . k j i h 2$3$e t t t t t t X 4$5$6$7$8$<.. . . . . . ",
". . . . . . . 3 l 9$0$a$b$c$d$e$f$g$h$&$i$j$C#y ' . . . . . . . ",
". . . . . . . . . ' 3+k$l$m$n$o$o$p$q$r$s$3+' . . . . . . . . . "};
