/* XPM */
static char * solidar16_xpm[] = {
"16 16 174 2",
"  	c None",
". 	c #4B2500",
"+ 	c #713800",
"@ 	c #7E3F00",
"# 	c #7B3B00",
"$ 	c #7D4F06",
"% 	c #492100",
"& 	c #4F2700",
"* 	c #894500",
"= 	c #BC5F00",
"- 	c #BE5E00",
"; 	c #BB5E00",
"> 	c #D38A0C",
", 	c #EFB015",
"' 	c #ECAC14",
") 	c #A16D0A",
"! 	c #4D2500",
"~ 	c #592A00",
"{ 	c #BB6904",
"] 	c #BB6102",
"^ 	c #C77506",
"/ 	c #D7900E",
"( 	c #E9AA14",
"_ 	c #E4A313",
": 	c #EAAB14",
"< 	c #ECAD14",
"[ 	c #C57E0B",
"} 	c #592C00",
"| 	c #BF800D",
"1 	c #B47008",
"2 	c #DCA414",
"3 	c #E1A513",
"4 	c #DFA313",
"5 	c #D29B13",
"6 	c #D69E13",
"7 	c #E2A513",
"8 	c #E8A913",
"9 	c #DDA213",
"0 	c #A75601",
"a 	c #A65300",
"b 	c #4E2700",
"c 	c #A16D0B",
"d 	c #734705",
"e 	c #492200",
"f 	c #6B4105",
"g 	c #D49A11",
"h 	c #9B6A0B",
"i 	c #4A2100",
"j 	c #5E3503",
"k 	c #BE870F",
"l 	c #E9AB13",
"m 	c #9C680A",
"n 	c #502700",
"o 	c #683E04",
"p 	c #915505",
"q 	c #EBAC14",
"r 	c #D49C12",
"s 	c #542C01",
"t 	c #7A3B00",
"u 	c #CF8A0D",
"v 	c #DBA112",
"w 	c #754A05",
"x 	c #744806",
"y 	c #DBA013",
"z 	c #ECAE14",
"A 	c #A95B02",
"B 	c #552A00",
"C 	c #CB7B08",
"D 	c #4A2200",
"E 	c #835307",
"F 	c #F9B816",
"G 	c #DA980F",
"H 	c #703600",
"I 	c #643200",
"J 	c #B05B01",
"K 	c #E4A814",
"L 	c #8F610A",
"M 	c #512800",
"N 	c #D39B13",
"O 	c #DC9A10",
"P 	c #944800",
"Q 	c #6A3500",
"R 	c #BA5D00",
"S 	c #C66300",
"T 	c #723900",
"U 	c #643803",
"V 	c #794A06",
"W 	c #784906",
"X 	c #643100",
"Y 	c #A55300",
"Z 	c #BA6F07",
"` 	c #714605",
" .	c #AC7A0D",
"..	c #D79810",
"+.	c #733800",
"@.	c #633100",
"#.	c #6D3600",
"$.	c #5D2E00",
"%.	c #7A4C06",
"&.	c #AF790D",
"*.	c #B07B0D",
"=.	c #813F00",
"-.	c #4E2600",
";.	c #864300",
">.	c #A25000",
",.	c #653D04",
"'.	c #6B4205",
").	c #815307",
"!.	c #D19A12",
"~.	c #592E01",
"{.	c #844100",
"].	c #924900",
"^.	c #934900",
"/.	c #6C3600",
"(.	c #6F4204",
"_.	c #C38A0F",
":.	c #B87D0D",
"<.	c #974A00",
"[.	c #673300",
"}.	c #663300",
"|.	c #7A3C00",
"1.	c #98680B",
"2.	c #97680B",
"3.	c #582F01",
"4.	c #B0800F",
"5.	c #6A3F04",
"6.	c #BC870F",
"7.	c #A05100",
"8.	c #653200",
"9.	c #482000",
"0.	c #DA950F",
"a.	c #B85B00",
"b.	c #8A4901",
"c.	c #643C04",
"d.	c #CD9611",
"e.	c #CB9511",
"f.	c #714806",
"g.	c #A3710C",
"h.	c #EBAE15",
"i.	c #B85E01",
"j.	c #BC5E00",
"k.	c #A06C0A",
"l.	c #E8AA14",
"m.	c #C06A04",
"n.	c #D49D13",
"o.	c #DEA213",
"p.	c #6D4204",
"q.	c #D29A12",
"r.	c #DA960F",
"s.	c #BB5C00",
"t.	c #874300",
"u.	c #4D2400",
"v.	c #DA9D12",
"w.	c #E7A813",
"x.	c #8F5F09",
"y.	c #A8750C",
"z.	c #E6A814",
"A.	c #AA770D",
"B.	c #8B5B08",
"C.	c #E4A914",
"D.	c #C26D05",
"E.	c #AF5800",
"F.	c #5C3202",
"G.	c #E7A914",
"H.	c #E3A413",
"I.	c #AD5400",
"J.	c #4C2400",
"K.	c #9F6B0A",
"L.	c #EFAF15",
"M.	c #9E6B0A",
"N.	c #461F00",
"O.	c #7C4C06",
"P.	c #8E5C09",
"Q.	c #7B4C06",
"          . + @ # $ %           ",
"      & * = - ; > , ' ) !       ",
"    ~ { ] ^ / ( _ : : < [ }     ",
"  ! | 1 2 3 4 5 6 7 8 9 0 a b   ",
"  c d e f g h i j k l m n o p   ",
"% q r s t u v w x y z A B 0 C D ",
"E F G H I J K L M N O P Q R S T ",
"U V W X b Y Z ` n  ...+.@.#.#.$.",
"%.&.*.=.-.;.>.,.'.).!.~.{.].^./.",
"(._.:.<.[.}.|.1.2.3.4.5.6.<.7.8.",
"9.' 0.a.b.M c.d.e.% f.g.h.i.j.. ",
"  k.l.m.n.M 5.4 o.p.! q.r.s.t.  ",
"  u.v.w.7 x.y.z.z.A.B.C.D.E.-.  ",
"    F.v.: G.G.: : G.G.H.I.}     ",
"      J.K.q L.< < L.: M..       ",
"          N.O.P.P.Q.N.          "};
