/* XPM */
static char * worldleadcurrency16_xpm[] = {
"16 16 207 2",
"  	c None",
". 	c #FFFFFF",
"+ 	c #FCFCFC",
"@ 	c #CFC4B8",
"# 	c #AA8D70",
"$ 	c #946738",
"% 	c #8D5621",
"& 	c #905B22",
"* 	c #A0783D",
"= 	c #AF9570",
"- 	c #CCC2B6",
"; 	c #E9E4DF",
"> 	c #AD9073",
", 	c #925111",
"' 	c #A85400",
") 	c #B75C00",
"! 	c #BD6602",
"~ 	c #CC8109",
"{ 	c #E4A613",
"] 	c #D09510",
"^ 	c #AA791B",
"/ 	c #B19773",
"( 	c #E8E2DD",
"_ 	c #A58059",
": 	c #9E5703",
"< 	c #C06B04",
"[ 	c #C87707",
"} 	c #D2880B",
"| 	c #DB980F",
"1 	c #E0A011",
"2 	c #E9AA13",
"3 	c #E8AA13",
"4 	c #AA6907",
"5 	c #A47E57",
"6 	c #E7E2DC",
"7 	c #B19875",
"8 	c #8D5404",
"9 	c #AB6A07",
"0 	c #BF850D",
"a 	c #DB9F11",
"b 	c #CD9410",
"c 	c #C18A0F",
"d 	c #C38C0F",
"e 	c #D99D11",
"f 	c #E5A713",
"g 	c #C88D0E",
"h 	c #A25A03",
"i 	c #834100",
"j 	c #A98B6E",
"k 	c #FCFBFB",
"l 	c #9C6D1A",
"m 	c #966509",
"n 	c #5B2F00",
"o 	c #815005",
"p 	c #C78F0F",
"q 	c #AB770C",
"r 	c #663B03",
"s 	c #744805",
"t 	c #BF880E",
"u 	c #E3A512",
"v 	c #A76F09",
"w 	c #623200",
"x 	c #7F4602",
"y 	c #915F15",
"z 	c #CBC1B5",
"A 	c #B09772",
"B 	c #CC910F",
"C 	c #C48E0F",
"D 	c #663A02",
"E 	c #7C4201",
"F 	c #C7820A",
"G 	c #D49A11",
"H 	c #7C4F06",
"I 	c #764A05",
"J 	c #D29911",
"K 	c #E2A212",
"L 	c #AA6505",
"M 	c #693400",
"N 	c #9D5502",
"O 	c #B26805",
"P 	c #A88C6D",
"Q 	c #9E783E",
"R 	c #D39710",
"S 	c #BE800C",
"T 	c #6D3800",
"U 	c #B16404",
"V 	c #D2920E",
"W 	c #8A5B08",
"X 	c #633902",
"Y 	c #C28C0F",
"Z 	c #D6930E",
"` 	c #904A00",
" .	c #6D3600",
"..	c #A25100",
"+.	c #AB5600",
"@.	c #906233",
"#.	c #7E5623",
"$.	c #996509",
"%.	c #925D07",
"&.	c #6D3700",
"*.	c #5A2C00",
"=.	c #994C00",
"-.	c #B86F07",
";.	c #7A4C05",
">.	c #572D01",
",.	c #A3710B",
"'.	c #CC8C0D",
").	c #7B4001",
"!.	c #6B3500",
"~.	c #804000",
"{.	c #824100",
"].	c #774B20",
"^.	c #8C6224",
"/.	c #AD770C",
"(.	c #A8700A",
"_.	c #814501",
":.	c #592C00",
"<.	c #944A00",
"[.	c #764704",
"}.	c #6E4304",
"|.	c #835507",
"1.	c #BF8A0F",
"2.	c #724103",
"3.	c #7D3F00",
"4.	c #904800",
"5.	c #914800",
"6.	c #804F20",
"7.	c #926F3C",
"8.	c #B37C0C",
"9.	c #AE7109",
"0.	c #924B01",
"a.	c #683400",
"b.	c #783D00",
"c.	c #916209",
"d.	c #936409",
"e.	c #683D03",
"f.	c #97690A",
"g.	c #7E5106",
"h.	c #A76F0A",
"i.	c #9B5302",
"j.	c #954A00",
"k.	c #865C33",
"l.	c #AF9571",
"m.	c #CF9410",
"n.	c #DA940E",
"o.	c #B65C00",
"p.	c #8C4D02",
"q.	c #5D3201",
"r.	c #6D4003",
"s.	c #B7820D",
"t.	c #B9840E",
"u.	c #623802",
"v.	c #6B4104",
"w.	c #9E6C0A",
"x.	c #DC9D11",
"y.	c #C06903",
"z.	c #AA5500",
"A.	c #A88A6A",
"B.	c #CDC3B7",
"C.	c #E09E10",
"D.	c #CA7D08",
"E.	c #BA800C",
"F.	c #764905",
"G.	c #D39911",
"H.	c #D59B11",
"I.	c #794C05",
"J.	c #613702",
"K.	c #BE880E",
"L.	c #D58D0C",
"M.	c #BB6000",
"N.	c #92500E",
"O.	c #CBBEB3",
"P.	c #B29974",
"Q.	c #BD840E",
"R.	c #E2A111",
"S.	c #DCA012",
"T.	c #976509",
"U.	c #A3700B",
"V.	c #E2A512",
"W.	c #A7730B",
"X.	c #936209",
"Y.	c #D79B11",
"Z.	c #C87606",
"`.	c #9D4E00",
" +	c #AA8B6D",
".+	c #E8E3DE",
"++	c #B0905C",
"@+	c #E7A913",
"#+	c #E0A312",
"$+	c #E3A513",
"%+	c #DFA212",
"&+	c #DE9B10",
"*+	c #9F5401",
"=+	c #A67E57",
"-+	c #E6E1DC",
";+	c #B29973",
">+	c #AB791B",
",+	c #E5A613",
"'+	c #D19610",
")+	c #AA7819",
"!+	c #AC8F6E",
"~+	c #CCC1B6",
"{+	c #AF9470",
"]+	c #A17B3C",
"^+	c #A17527",
"/+	c #A17B3A",
"(+	c #CBBFB4",
". . . + @ # $ % & * = - + . . . ",
". . ; > , ' ) ! ~ { ] ^ / ( . . ",
". ; _ : < [ } | 1 2 2 3 4 5 6 . ",
"+ 7 8 9 0 a b c d e f g h i j k ",
"@ l m n o p q r s t u v w x y z ",
"A B C D E F G H I J K L M N O P ",
"Q R S T M U V W X Y Z `  ...+.@.",
"#.$.%.&.*.=.-.;.>.,.'.).!.~.{.].",
"^./.(._.:.~.<.[.}.|.1.2.3.4.5.6.",
"7.8.9.0.!.a.b.c.d.e.f.g.h.i.j.k.",
"l.m.n.o.p.q.r.s.t.u.v.w.x.y.z.A.",
"B.^ C.D.E.X F.G.H.I.J.K.L.M.N.O.",
"+ P.Q.R.S.T.U.V.V.W.X.Y.Z.`. +k ",
". .+++Q.@+#+V.3 2 $+%+&+*+=+-+. ",
". . .+;+>+] ,+3 2 ,+'+)+!+-+. . ",
". . . + ~+{+]+^+^+/+{+(+k . . . "};
